<svg height="512pt" viewBox="0 -69 512 512" width="512pt" xmlns="http://www.w3.org/2000/svg"><path d="m413.066406 185.816406v-153.035156c0-12.582031-10.199218-22.78125-22.78125-22.78125h-357.496094c-12.589843 0-22.789062 10.199219-22.789062 22.78125v251.894531c0 12.589844 10.199219 22.789063 22.789062 22.789063h295.734376" fill="#f9f9f9"/><path d="m360.039062 203.734375v-23.136719h-95.480468v60h65.871094" fill="#ffcb7c"/><path d="m125.597656 241.039062c-6.578125 5.167969-14.867187 8.246094-23.878906 8.246094-21.371094 0-38.691406-17.320312-38.691406-38.6875 0-21.367187 17.320312-38.691406 38.691406-38.691406 9.011719 0 17.300781 3.082031 23.878906 8.246094" fill="#f6838d"/><path d="m189.019531 210.597656c0 21.367188-17.320312 38.6875-38.6875 38.6875-21.367187 0-38.691406-17.320312-38.691406-38.6875 0-21.367187 17.324219-38.691406 38.691406-38.691406 21.367188 0 38.6875 17.324219 38.6875 38.691406zm0 0" fill="#ffd89e"/><path d="m166.308594 117.210938h-156.308594v-48.992188h403.066406v48.992188h-156.308594" fill="#9593e6"/><path d="m502 276.359375c0 48.90625-39.644531 88.550781-88.550781 88.550781-48.902344 0-88.546875-39.644531-88.546875-88.550781 0-48.902344 39.644531-88.546875 88.546875-88.546875 48.90625 0 88.550781 39.644531 88.550781 88.546875zm0 0" fill="#91d9b9"/><path d="m150.332031 161.90625c-8.839843 0-17.132812 2.367188-24.285156 6.5-7.355469-4.269531-15.648437-6.5-24.328125-6.5-26.851562 0-48.691406 21.84375-48.691406 48.691406s21.839844 48.6875 48.691406 48.6875c8.679688 0 16.972656-2.230468 24.328125-6.496094 7.152344 4.132813 15.445313 6.496094 24.285156 6.496094 26.847657 0 48.6875-21.839844 48.6875-48.6875s-21.839843-48.691406-48.6875-48.691406zm-77.304687 48.691406c0-15.820312 12.871094-28.691406 28.691406-28.691406 2.898438 0 5.722656.425781 8.414062 1.246094-5.355468 7.820312-8.492187 17.273437-8.492187 27.445312s3.136719 19.625 8.492187 27.441406c-2.691406.824219-5.515624 1.25-8.414062 1.25-15.820312-.003906-28.691406-12.875-28.691406-28.691406zm77.304687 28.6875c-15.820312 0-28.691406-12.871094-28.691406-28.6875 0-15.820312 12.871094-28.691406 28.691406-28.691406 15.820313 0 28.6875 12.871094 28.6875 28.691406 0 15.820313-12.867187 28.6875-28.6875 28.6875zm0 0"/><path d="m423.066406 178.28125v-145.5c0-18.078125-14.707031-32.78125-32.78125-32.78125h-357.496094c-18.078124 0-32.789062 14.707031-32.789062 32.78125v251.894531c0 18.078125 14.710938 32.789063 32.789062 32.789063h291.105469c15.609375 33.871094 49.878907 57.445312 89.558594 57.445312 54.339844 0 98.546875-44.210937 98.546875-98.550781 0-51.09375-39.089844-93.226563-88.933594-98.078125zm-390.277344-158.28125h357.496094c7.046875 0 12.78125 5.734375 12.78125 12.78125v25.4375h-383.066406v-25.4375c0-7.046875 5.738281-12.78125 12.789062-12.78125zm0 277.464844c-7.050781 0-12.789062-5.738282-12.789062-12.789063v-157.464843h146.308594c5.523437 0 10-4.476563 10-10 0-5.523438-4.476563-10-10-10h-146.308594v-28.992188h383.066406v28.992188h-146.308594c-5.523437 0-10 4.476562-10 10 0 5.523437 4.476563 10 10 10h146.308594v51.148437c-11.742187 1.234375-22.875 4.542969-33.027344 9.546875v-7.308594c0-5.523437-4.476562-10-10-10h-95.480468c-5.523438 0-10 4.476563-10 10v60c0 5.519532 4.476562 10 10 10h53.769531c-2.230469 8.214844-3.425781 16.851563-3.425781 25.761719 0 7.242187.792968 14.304687 2.28125 21.105469zm293.40625-66.867188h-51.636718v-40h75.480468v10.390625c-9.734374 8.207031-17.863281 18.253907-23.84375 29.609375zm87.257813 124.3125c-43.3125 0-78.550781-35.238281-78.550781-78.546875 0-43.3125 35.238281-78.550781 78.550781-78.550781 43.308594 0 78.546875 35.238281 78.546875 78.550781 0 43.308594-35.238281 78.546875-78.546875 78.546875zm0 0"/><path d="m441.925781 266.359375h-18.476562v-18.472656c0-5.523438-4.476563-10-10-10-5.519531 0-10 4.476562-10 10v18.472656h-18.472657c-5.523437 0-10 4.480469-10 10 0 5.523437 4.476563 10 10 10h18.472657v18.476563c0 5.523437 4.480469 10 10 10 5.523437 0 10-4.476563 10-10v-18.476563h18.476562c5.523438 0 10-4.476563 10-10 0-5.519531-4.476562-10-10-10zm0 0"/><path d="m211.71875 127.214844c-4.234375 0-8.105469-2.785156-9.46875-6.789063-1.367188-4.023437.03125-8.554687 3.382812-11.144531 3.21875-2.488281 7.734376-2.707031 11.21875-.636719 3.582032 2.125 5.496094 6.4375 4.667969 10.519531-.933593 4.613282-5.078125 8.050782-9.800781 8.050782zm0 0"/></svg>