<svg id="Capa_1" enable-background="new 0 0 509.262 509.262" height="512" viewBox="0 0 509.262 509.262" width="512" xmlns="http://www.w3.org/2000/svg"><g><path d="m486.02 154.083-14.579-9.271c20.196-14.516 33.386-38.193 33.386-64.906-.001-44.06-35.846-79.906-79.907-79.906-39.063 0-71.646 28.183-78.54 65.279l-81.521-51.847c-8.314-5.285-19.063-5.285-27.377.001l-221.161 140.65c-9.815 6.241-14.058 17.489-10.808 28.657 3.237 11.125 12.792 18.323 24.362 18.377v21.625c0 7.615 6.195 13.81 13.81 13.81h8.96v175.314c-8.327 1.173-14.76 8.316-14.76 16.948v14.932c-11.55 1.541-20.49 11.45-20.49 23.415v18.47c0 13.03 10.601 23.63 23.63 23.63h348.12c4.143 0 7.5-3.358 7.5-7.5s-3.357-7.5-7.5-7.5h-348.12c-4.759 0-8.63-3.871-8.63-8.63v-18.47c0-4.758 3.871-8.63 8.63-8.63h427.54c4.759 0 8.63 3.872 8.63 8.63v18.47c0 4.759-3.871 8.63-8.63 8.63h-45.42c-4.143 0-7.5 3.358-7.5 7.5s3.357 7.5 7.5 7.5h45.42c13.029 0 23.63-10.6 23.63-23.63v-18.47c0-13.03-10.601-23.63-23.63-23.63h-2.545v-14.717c0-8.846-6.749-16.147-15.375-17.042v-175.22h8.01c7.615 0 13.811-6.195 13.811-13.81v-21.625c11.57-.054 21.125-7.252 24.361-18.377 3.25-11.168-.992-22.416-10.807-28.657zm-61.1-139.083c35.789 0 64.906 29.117 64.906 64.906 0 35.79-29.117 64.906-64.906 64.906s-64.905-29.117-64.905-64.906 29.116-64.906 64.905-64.906zm-309.274 221.552v175.126h-48v-175.126zm15.112 206.98h-77.872v-14.717c0-1.178.97-2.136 2.162-2.136h73.538c1.197 0 2.172.958 2.172 2.136zm174.3 0h-106.208v-101.643c0-11.435 6.753-21.095 14.746-21.095h76.715c7.994 0 14.747 9.661 14.747 21.095zm145.963 0h-77.871v-14.717c0-1.178.97-2.136 2.161-2.136h73.549c1.191 0 2.161.958 2.161 2.136zm-15.375-31.853h-48v-175.127h48zm46.779-233.129c-1.065 3.661-4.275 7.573-10.089 7.573h-281.69c-4.143 0-7.5 3.358-7.5 7.5s3.357 7.5 7.5 7.5h266.82v20.43h-118.32c-4.143 0-7.5 3.358-7.5 7.5s3.357 7.5 7.5 7.5h33.5v175.355c-8.198 1.285-14.496 8.367-14.496 16.908v14.717h-38.092v-101.644c0-19.903-13.345-36.095-29.747-36.095h-76.715c-16.402 0-29.746 16.192-29.746 36.095v101.644h-38.092v-14.717c0-8.752-6.613-15.98-15.112-17.001v-175.263h174.5c4.143 0 7.5-3.358 7.5-7.5s-3.357-7.5-7.5-7.5h-260.27v-20.43h111.77c4.143 0 7.5-3.358 7.5-7.5s-3.357-7.5-7.5-7.5h-126.64c-5.814 0-9.024-3.912-10.09-7.573-1.065-3.662-.455-8.687 4.454-11.809l221.159-140.648c3.428-2.179 7.857-2.178 11.281-.001l88.263 56.134c1.235 42.989 36.565 77.587 79.846 77.587 11.286 0 22.026-2.365 31.769-6.604l21.281 13.534c4.911 3.12 5.521 8.146 4.456 11.808z"/><path d="m254.795 64.639c-29.592 0-53.667 24.075-53.667 53.667s24.075 53.667 53.667 53.667c29.593 0 53.668-24.075 53.668-53.667s-24.075-53.667-53.668-53.667zm0 92.335c-21.321 0-38.667-17.346-38.667-38.667s17.346-38.667 38.667-38.667 38.668 17.346 38.668 38.667-17.347 38.667-38.668 38.667z"/><path d="m424.92 129.104c27.128 0 49.198-22.07 49.198-49.199 0-27.128-22.07-49.198-49.198-49.198s-49.198 22.07-49.198 49.198c0 27.129 22.07 49.199 49.198 49.199zm0-83.396c18.857 0 34.198 15.341 34.198 34.198s-15.341 34.199-34.198 34.199-34.198-15.341-34.198-34.199c0-18.857 15.341-34.198 34.198-34.198z"/></g></svg>