<?xml version="1.0" encoding="iso-8859-1"?>
<!-- Generator: Adobe Illustrator 19.0.0, SVG Export Plug-In . SVG Version: 6.00 Build 0)  -->
<svg version="1.1" id="Capa_1" xmlns="http://www.w3.org/2000/svg" xmlns:xlink="http://www.w3.org/1999/xlink" x="0px" y="0px"
	 viewBox="0 0 416.427 416.427" style="enable-background:new 0 0 416.427 416.427;" xml:space="preserve">
<g>
	<g>
		<path d="M184.38,23.893H20.42C9.16,23.893,0,33.053,0,44.314v327.799c0,11.261,9.16,20.42,20.42,20.42H184.38
			c11.261,0,20.42-9.16,20.42-20.42V44.314C204.8,33.053,195.64,23.893,184.38,23.893z M191.147,372.113
			c0,3.731-3.033,6.767-6.767,6.767H20.42c-3.734,0-6.767-3.036-6.767-6.767V44.314c0-3.731,3.033-6.767,6.767-6.767H184.38
			c3.734,0,6.767,3.036,6.767,6.767V372.113z"/>
	</g>
</g>
<g>
	<g>
		<path d="M177.493,44.373H27.307c-3.773,0-6.827,3.057-6.827,6.827v266.24c0,3.77,3.053,6.827,6.827,6.827h150.187
			c3.773,0,6.827-3.057,6.827-6.827V51.2C184.32,47.43,181.267,44.373,177.493,44.373z M170.667,310.613H34.133V58.027h136.533
			V310.613z"/>
	</g>
</g>
<g>
	<g>
		<path d="M102.4,331.093c-11.293,0-20.48,9.187-20.48,20.48c0,11.293,9.187,20.48,20.48,20.48c11.293,0,20.48-9.187,20.48-20.48
			C122.88,340.28,113.693,331.093,102.4,331.093z M102.4,358.4c-3.767,0-6.827-3.063-6.827-6.827c0-3.763,3.06-6.827,6.827-6.827
			c3.767,0,6.827,3.063,6.827,6.827C109.227,355.337,106.167,358.4,102.4,358.4z"/>
	</g>
</g>
<g>
	<g>
		<path d="M73.093,73.68c-2.666-2.666-6.987-2.666-9.653,0L46.374,90.747c-2.666,2.666-2.666,6.987,0,9.653
			c1.333,1.333,3.081,2,4.826,2c1.746,0,3.494-0.667,4.826-2l17.067-17.067C75.759,80.667,75.759,76.346,73.093,73.68z"/>
	</g>
</g>
<g>
	<g>
		<path d="M100.4,73.68c-2.666-2.666-6.987-2.666-9.653,0L53.2,111.227c-2.666,2.666-2.666,6.987,0,9.653
			c1.333,1.333,3.081,2,4.826,2s3.494-0.667,4.826-2L100.4,83.333C103.066,80.667,103.066,76.346,100.4,73.68z"/>
	</g>
</g>
<g>
	<g>
		<path d="M396.006,23.893H232.047c-11.261,0-20.42,9.16-20.42,20.42v327.799c0,11.261,9.16,20.42,20.42,20.42h163.959
			c11.261,0,20.42-9.16,20.42-20.42V44.314C416.427,33.053,407.267,23.893,396.006,23.893z M402.773,372.113
			c0,3.731-3.033,6.767-6.767,6.767H232.047c-3.734,0-6.767-3.036-6.767-6.767V44.314c0-3.731,3.033-6.767,6.767-6.767h163.959
			c3.734,0,6.767,3.036,6.767,6.767V372.113z"/>
	</g>
</g>
<g>
	<g>
		<path d="M259.413,44.373c-11.293,0-20.48,9.187-20.48,20.48c0,11.293,9.187,20.48,20.48,20.48c11.293,0,20.48-9.187,20.48-20.48
			S270.706,44.373,259.413,44.373z M259.413,71.68c-3.767,0-6.827-3.063-6.827-6.827c0-3.763,3.06-6.827,6.827-6.827
			c3.767,0,6.827,3.063,6.827,6.827C266.24,68.617,263.18,71.68,259.413,71.68z"/>
	</g>
</g>
<g>
	<g>
		<path d="M402.773,92.16H225.28c-3.773,0-6.827,3.057-6.827,6.827s3.053,6.827,6.827,6.827h177.493
			c3.773,0,6.827-3.057,6.827-6.827S406.547,92.16,402.773,92.16z"/>
	</g>
</g>
<g>
</g>
<g>
</g>
<g>
</g>
<g>
</g>
<g>
</g>
<g>
</g>
<g>
</g>
<g>
</g>
<g>
</g>
<g>
</g>
<g>
</g>
<g>
</g>
<g>
</g>
<g>
</g>
<g>
</g>
</svg>
