<svg id="Capa_1" enable-background="new 0 0 511.129 511.129" height="512" viewBox="0 0 511.129 511.129" width="512" xmlns="http://www.w3.org/2000/svg"><g><path d="m483.565 366h-10.5v-2.5c0-26.191-21.309-47.5-47.5-47.5h-114.914l55.417-70h-53.003v-116h-115v116h-53.003l55.417 70h-114.914c-26.191 0-47.5 21.309-47.5 47.5v2.5h-10.5c-15.163 0-27.5 12.336-27.5 27.5v40c0 15.164 12.337 27.5 27.5 27.5h10.5v2.5c0 26.191 21.309 47.5 47.5 47.5 39.012-2.244 72.702 7.355 114.643-15.944 33.837-18.798 76.825-18.827 110.715 0 41.941 23.299 75.631 13.7 114.643 15.944 26.191 0 47.5-21.309 47.5-47.5v-2.5h10.5c15.163 0 27.5-12.336 27.5-27.5v-40c-.001-15.164-12.338-27.5-27.501-27.5zm-445.5 80h-10.5c-6.893 0-12.5-5.607-12.5-12.5v-40c0-6.893 5.607-12.5 12.5-12.5h10.5zm138.003-185h36.997v-116h85v116h36.997l-79.497 100.417zm281.997 202.5c0 17.92-14.579 32.5-32.5 32.5-39.44-2.111-69.871 6.769-107.357-14.056-37.61-20.893-86.072-21.784-125.285 0-37.48 20.822-67.923 11.945-107.357 14.056-17.921 0-32.5-14.58-32.5-32.5v-100c0-17.92 14.579-32.5 32.5-32.5h126.789l43.211 54.583 43.21-54.583h126.789c17.921 0 32.5 14.58 32.5 32.5zm38-30c0 6.893-5.607 12.5-12.5 12.5h-10.5v-65h10.5c6.893 0 12.5 5.607 12.5 12.5zm-138-64h15v77.5h-235v-77.5h15v62.5h205zm-22.5 47.5h-160v-15h160zm-22.5-357h-115v55h115zm-15 40h-85v-25h85zm15-100h-115v45h115zm-15 30h-85v-15h85z" fill="#233d91"/></g></svg>