<?xml version="1.0" encoding="iso-8859-1"?>
<!-- Generator: Adobe Illustrator 19.0.0, SVG Export Plug-In . SVG Version: 6.00 Build 0)  -->
<svg version="1.1" id="Capa_1" xmlns="http://www.w3.org/2000/svg" xmlns:xlink="http://www.w3.org/1999/xlink" x="0px" y="0px"
	 viewBox="0 0 384.005 384.005" style="enable-background:new 0 0 384.005 384.005;" xml:space="preserve">
<g>
	<g>
		<path d="M373.339,85.328c-5.888,0-10.667,4.779-10.667,10.667v266.667H96.005c-5.888,0-10.667,4.779-10.667,10.667
			c0,5.888,4.779,10.667,10.667,10.667h277.333c5.888,0,10.667-4.779,10.667-10.667V95.995
			C384.005,90.107,379.227,85.328,373.339,85.328z"/>
	</g>
</g>
<g>
	<g>
		<path d="M380.869,365.797L18.203,3.131c-4.16-4.16-10.923-4.16-15.083,0c-4.16,4.16-4.16,10.923,0,15.083L365.787,380.88
			c2.091,2.069,4.821,3.115,7.552,3.115c2.731,0,5.461-1.045,7.531-3.115C385.029,376.72,385.029,369.957,380.869,365.797z"/>
	</g>
</g>
<g>
</g>
<g>
</g>
<g>
</g>
<g>
</g>
<g>
</g>
<g>
</g>
<g>
</g>
<g>
</g>
<g>
</g>
<g>
</g>
<g>
</g>
<g>
</g>
<g>
</g>
<g>
</g>
<g>
</g>
</svg>
