<?xml version="1.0" encoding="iso-8859-1"?>
<!-- Generator: Adobe Illustrator 19.0.0, SVG Export Plug-In . SVG Version: 6.00 Build 0)  -->
<svg version="1.1" id="Capa_1" xmlns="http://www.w3.org/2000/svg" xmlns:xlink="http://www.w3.org/1999/xlink" x="0px" y="0px"
	 viewBox="0 0 363.556 363.556" style="enable-background:new 0 0 363.556 363.556;" xml:space="preserve">
<g>
	<g>
		<path d="M334.578,303.6l-82.4-82.4l40.8-68.8c1.2-1.6,2-4,2-6c0-6-4.8-10.8-10.8-10.8h-52.4l60.4-119.2c0.8-1.6,1.6-3.6,1.6-5.6
			c0-6-4.8-10.8-10.8-10.8h-171.2c-6,0-10.8,4.8-10.8,10.8v59.6L44.178,14c-4-4-10.8-4-15.2,0c-4,4-4,10.8,0,15.2l72,71.6v100.8
			c0,6,4.8,10.8,10.8,10.8h39.6v140.4c0,3.6,2,7.2,5.2,9.2c5.2,3.2,11.6,1.2,14.8-3.6l69.6-117.6l78.4,78c4,4,10.8,4,15.2,0
			C338.578,314.8,338.578,308,334.578,303.6z M172.578,313.2V201.6c0-6-4.8-10.8-10.8-10.8h-39.6V122l102.8,102.4L172.578,313.2z
			 M236.578,205.6l-114-113.6V21.6h142.8l-60.4,120c-2.8,5.2-0.4,11.6,4.8,14.4c1.6,0.8,3.2,1.2,4.8,1.2h50.8L236.578,205.6z"/>
	</g>
</g>
<g>
</g>
<g>
</g>
<g>
</g>
<g>
</g>
<g>
</g>
<g>
</g>
<g>
</g>
<g>
</g>
<g>
</g>
<g>
</g>
<g>
</g>
<g>
</g>
<g>
</g>
<g>
</g>
<g>
</g>
</svg>
