<?xml version="1.0" encoding="iso-8859-1"?>
<!-- Generator: Adobe Illustrator 19.0.0, SVG Export Plug-In . SVG Version: 6.00 Build 0)  -->
<svg version="1.1" id="Capa_1" xmlns="http://www.w3.org/2000/svg" xmlns:xlink="http://www.w3.org/1999/xlink" x="0px" y="0px"
	 viewBox="0 0 512 512" style="enable-background:new 0 0 512 512;" xml:space="preserve">
<path style="fill:#004B7D;" d="M497,241c-8.284,0-15,6.716-15,15c0,124.617-101.383,226-226,226S30,380.617,30,256
	S131.383,30,256,30c38.001,0,74.962,9.436,107.959,27.412l-18.753,18.754c-4.29,4.29-5.573,10.741-3.252,16.347
	c2.322,5.605,7.791,9.26,13.858,9.26h71.773c8.284,0,15-6.716,15-15V15c0-6.067-3.654-11.536-9.26-13.858
	c-5.603-2.318-12.057-1.039-16.347,3.252L385.963,35.41C346.675,12.213,302.004,0,256,0C187.62,0,123.333,26.629,74.981,74.981
	S0,187.62,0,256s26.629,132.667,74.981,181.019S187.62,512,256,512s132.668-26.629,181.019-74.981
	C485.371,388.667,512,324.38,512,256C512,247.716,505.284,241,497,241z"/>
<path style="fill:#663E2C;" d="M352.4,271H256c-8.284,0-15-6.716-15-15v-96.4c0-8.284,6.716-15,15-15s15,6.716,15,15V241h81.4
	c8.284,0,15,6.716,15,15S360.685,271,352.4,271z"/>
<path style="fill:#002B4F;" d="M363.959,57.412l-18.753,18.754c-4.29,4.29-5.573,10.741-3.252,16.347
	c2.322,5.605,7.791,9.26,13.858,9.26h71.773c8.284,0,15-6.716,15-15V15c0-6.067-3.654-11.536-9.26-13.858
	c-5.603-2.318-12.057-1.039-16.347,3.252L385.963,35.41C346.675,12.213,302.004,0,256,0v30
	C294.001,30,330.962,39.436,363.959,57.412z"/>
<path style="fill:#482F21;" d="M352.4,271c8.284,0,15-6.716,15-15s-6.716-15-15-15H271v-81.4c0-8.284-6.716-15-15-15V271H352.4z"/>
<path style="fill:#002B4F;" d="M497,241c-8.284,0-15,6.716-15,15c0,124.617-101.383,226-226,226v30
	c68.38,0,132.668-26.629,181.019-74.981C485.371,388.667,512,324.38,512,256C512,247.716,505.284,241,497,241z"/>
<g>
</g>
<g>
</g>
<g>
</g>
<g>
</g>
<g>
</g>
<g>
</g>
<g>
</g>
<g>
</g>
<g>
</g>
<g>
</g>
<g>
</g>
<g>
</g>
<g>
</g>
<g>
</g>
<g>
</g>
</svg>
