<?xml version="1.0" encoding="iso-8859-1"?>
<!-- Generator: Adobe Illustrator 19.0.0, SVG Export Plug-In . SVG Version: 6.00 Build 0)  -->
<svg version="1.1" id="Capa_1" xmlns="http://www.w3.org/2000/svg" xmlns:xlink="http://www.w3.org/1999/xlink" x="0px" y="0px"
	 viewBox="0 0 512.009 512.009" style="enable-background:new 0 0 512.009 512.009;" xml:space="preserve">
<g>
	<g>
		<path d="M500.373,244.083H39.689l96.465-96.465c4.563-4.531,4.589-11.903,0.058-16.465c-4.531-4.563-11.903-4.589-16.465-0.058
			L3.384,247.458c-4.512,4.539-4.512,11.869,0,16.407l116.364,116.364c4.18,4.881,11.526,5.45,16.407,1.269
			c4.881-4.18,5.45-11.526,1.269-16.407c-0.39-0.455-0.814-0.88-1.269-1.269l-96.465-96.465h460.684
			c6.427,0,11.636-5.21,11.636-11.636S506.799,244.083,500.373,244.083z"/>
	</g>
</g>
<g>
</g>
<g>
</g>
<g>
</g>
<g>
</g>
<g>
</g>
<g>
</g>
<g>
</g>
<g>
</g>
<g>
</g>
<g>
</g>
<g>
</g>
<g>
</g>
<g>
</g>
<g>
</g>
<g>
</g>
</svg>
