<?xml version="1.0" encoding="iso-8859-1"?>
<!-- Generator: Adobe Illustrator 19.0.0, SVG Export Plug-In . SVG Version: 6.00 Build 0)  -->
<svg version="1.1" id="Capa_1" xmlns="http://www.w3.org/2000/svg" xmlns:xlink="http://www.w3.org/1999/xlink" x="0px" y="0px"
	 viewBox="0 0 512 512" style="enable-background:new 0 0 512 512;" xml:space="preserve">
<g>
	<g>
		<path d="M450.462,194.372h-39.028v-38.179C411.428,69.929,341.739,0.007,256.001,0c-85.738,0.007-155.628,69.929-155.635,156.192
			v38.179H61.538c-14.26,0-25.928,11.74-25.928,26.09V485.91c0,14.351,11.667,26.09,25.928,26.09h388.925
			c14.26,0,25.928-11.74,25.928-26.09V220.462C476.391,206.11,464.723,194.372,450.462,194.372z M119.812,156.192
			c0.007-37.758,15.583-71.853,40.17-96.609c24.607-24.736,58.488-40.008,96.02-40.014c37.525,0.007,71.413,15.278,96.013,40.014
			c24.593,24.756,39.968,58.851,39.975,96.609v38.179H119.812V156.192z M450.464,492.431H61.538c-3.513,0-6.482-2.989-6.482-6.521
			V220.462c0-3.533,2.969-6.521,6.482-6.521h388.925c3.513,0,6.482,2.982,6.482,6.521V485.91h0.001
			C456.945,489.442,453.976,492.431,450.464,492.431z"/>
	</g>
</g>
<g>
	<g>
		<path d="M256.001,296.763c-25.067,0-45.375,20.438-45.375,45.654c0,21.858,15.259,40.098,35.652,44.577v46.73
			c0,5.406,4.356,9.782,9.723,9.782c5.367,0,9.723-4.376,9.723-9.782v-46.73c20.392-4.48,35.652-22.727,35.652-44.577
			C301.375,317.206,281.067,296.763,256.001,296.763z M256.001,368.512c-14.3,0-25.928-11.707-25.928-26.09
			s11.629-26.09,25.928-26.09c14.3,0,25.928,11.707,25.928,26.09S270.3,368.512,256.001,368.512z"/>
	</g>
</g>
<g>
</g>
<g>
</g>
<g>
</g>
<g>
</g>
<g>
</g>
<g>
</g>
<g>
</g>
<g>
</g>
<g>
</g>
<g>
</g>
<g>
</g>
<g>
</g>
<g>
</g>
<g>
</g>
<g>
</g>
</svg>
