<svg id="Capa_1" enable-background="new 0 0 512 512" height="512" viewBox="0 0 512 512" width="512" xmlns="http://www.w3.org/2000/svg"><g><g><path d="m502 453.134h-58.623v-208.537c0-5.523-4.477-10-10-10h-72.01c-5.523 0-10 4.477-10 10v208.538h-34.006v-136.02c0-5.523-4.477-10-10-10h-72.01c-5.523 0-10 4.477-10 10v136.02h-30.673v-255.249c0-5.523-4.477-10-10-10h-72.009c-5.523 0-10 4.477-10 10v255.248h-40.008v-306.242c0-5.523-4.477-10-10-10s-10 4.477-10 10v306.243h-32.661c-5.523 0-10 4.477-10 10s4.477 10 10 10h32.661v28.865c0 5.523 4.477 10 10 10s10-4.477 10-10v-28.866h439.339c5.523 0 10-4.477 10-10s-4.477-10-10-10zm-379.331 0v-245.248h52.009v245.248zm122.683 0v-126.02h52.01v126.02zm126.015 0v-198.537h52.01v198.538h-52.01z"/><path d="m52.661 69.462c5.523 0 10-4.477 10-10v-49.462c0-5.523-4.477-10-10-10s-10 4.477-10 10v49.462c0 5.523 4.477 10 10 10z"/><path d="m477.44 0h-224.196c-19.057 0-34.56 15.503-34.56 34.56v139.156c0 19.056 15.503 34.56 34.56 34.56h8.112v42.724c0 8.586 10.658 13.196 16.904 7.234l52.343-49.958h59.289c5.523 0 10-4.477 10-10s-4.477-10-10-10h-63.295c-2.571 0-5.044.991-6.904 2.766l-38.337 36.59v-29.356c0-5.523-4.477-10-10-10h-18.112c-8.028 0-14.56-6.531-14.56-14.56v-139.156c0-8.028 6.532-14.56 14.56-14.56h224.196c8.028 0 14.56 6.532 14.56 14.56v139.156c0 7.888-6.417 14.416-14.304 14.55-5.522.094-9.922 4.647-9.828 10.169s4.618 9.924 10.169 9.828c18.727-.32 33.962-15.818 33.962-34.547v-139.156c.001-19.057-15.502-34.56-34.559-34.56z"/><path d="m43.43 106.18c2.066 5.045 8.036 7.49 13.06 5.41 5.028-2.081 7.491-8.036 5.4-13.06-2.094-5.032-8.01-7.491-13.05-5.41-5.027 2.076-7.505 8.036-5.41 13.06z"/><path d="m329.466 92.359c-2.299 0-4.528.792-6.311 2.243l-49.19 40.022c-4.284 3.485-4.932 9.784-1.446 14.068 1.977 2.43 4.857 3.689 7.763 3.689 2.218 0 4.451-.734 6.305-2.244l46.434-37.779h65.9c2.39 0 4.701-.856 6.514-2.413l35.742-30.686v8.229c0 5.523 4.477 10 10 10s10-4.477 10-10v-32.263c0-5.523-4.477-10-10-10h-34.083c-5.523 0-10 4.477-10 10s4.477 10 10 10h9.728l-31.605 27.134z"/><path d="m443.37 194.06c-3.435-8.246-15.614-7.988-18.646.455-1.437 4.002-.102 8.646 3.261 11.253 3.257 2.525 7.807 2.793 11.332.665 4.166-2.514 5.926-7.879 4.053-12.373z"/></g></g></svg>