<?xml version="1.0" encoding="iso-8859-1"?>
<!-- Generator: Adobe Illustrator 19.0.0, SVG Export Plug-In . SVG Version: 6.00 Build 0)  -->
<svg version="1.1" id="Capa_1" xmlns="http://www.w3.org/2000/svg" xmlns:xlink="http://www.w3.org/1999/xlink" x="0px" y="0px"
	 viewBox="0 0 314.027 314.027" style="enable-background:new 0 0 314.027 314.027;" xml:space="preserve">
<g>
	<g>
		<path d="M211.686,81.921H102.34c-11.261,0-20.42,9.16-20.42,20.417v109.353c0,11.257,9.16,20.417,20.42,20.417h109.346
			c11.261,0,20.42-9.16,20.42-20.417V102.338C232.107,91.08,222.947,81.921,211.686,81.921z M218.453,211.691
			c0,3.731-3.033,6.764-6.767,6.764H102.34c-3.734,0-6.767-3.033-6.767-6.764V102.338c0-3.731,3.033-6.764,6.767-6.764h109.346
			c3.734,0,6.767,3.033,6.767,6.763V211.691z"/>
	</g>
</g>
<g>
	<g>
		<path d="M79.872,70.051L23.347,13.838h23.689c3.748,0,6.793-3.098,6.793-6.919s-3.045-6.919-6.793-6.919H6.792
			C3.045,0.001,0,3.098,0,6.92v40.844c0,3.821,3.045,6.919,6.792,6.919c3.755,0,6.793-3.098,6.793-6.919V23.473l56.798,56.479
			c2.683,2.669,6.984,2.618,9.605-0.116S82.555,72.72,79.872,70.051z"/>
	</g>
</g>
<g>
	<g>
		<path d="M307.234,0.002h-40.243c-3.748,0-6.792,3.098-6.792,6.919s3.045,6.919,6.792,6.919h23.689l-56.525,56.211
			c-2.683,2.669-2.737,7.05-0.116,9.784s6.922,2.785,9.605,0.116l56.798-56.479v24.293c0,3.821,3.038,6.919,6.793,6.919
			c3.748,0,6.793-3.098,6.793-6.919V6.921C314.027,3.1,310.982,0.002,307.234,0.002z"/>
	</g>
</g>
<g>
	<g>
		<path d="M79.988,234.193c-2.621-2.736-6.922-2.787-9.605-0.118l-56.798,56.479v-24.291c0-3.821-3.038-6.919-6.793-6.919
			c-3.748,0-6.792,3.098-6.792,6.919v40.844c0,3.821,3.045,6.919,6.792,6.919h40.243c3.748,0,6.793-3.098,6.793-6.919
			s-3.045-6.919-6.793-6.919H23.347l56.525-56.211C82.555,241.308,82.609,236.927,79.988,234.193z"/>
	</g>
</g>
<g>
	<g>
		<path d="M307.234,259.344c-3.755,0-6.793,3.098-6.793,6.919v24.291l-56.798-56.479c-2.683-2.669-6.984-2.618-9.605,0.118
			c-2.621,2.734-2.567,7.115,0.116,9.784l56.525,56.211h-23.689c-3.748,0-6.792,3.098-6.792,6.919s3.045,6.919,6.792,6.919h40.243
			c3.748,0,6.793-3.098,6.793-6.919v-40.844C314.027,262.442,310.982,259.344,307.234,259.344z"/>
	</g>
</g>
<g>
</g>
<g>
</g>
<g>
</g>
<g>
</g>
<g>
</g>
<g>
</g>
<g>
</g>
<g>
</g>
<g>
</g>
<g>
</g>
<g>
</g>
<g>
</g>
<g>
</g>
<g>
</g>
<g>
</g>
</svg>
