<svg id="Capa_1" enable-background="new 0 0 512 512" height="512" viewBox="0 0 512 512" width="512" xmlns="http://www.w3.org/2000/svg"><g><path d="m7.5 180.67h165.67c4.143 0 7.5-3.357 7.5-7.5v-94.1c0-4.143-3.357-7.5-7.5-7.5s-7.5 3.357-7.5 7.5v86.6h-150.67v-150.67h150.67v31.38c0 4.143 3.357 7.5 7.5 7.5s7.5-3.357 7.5-7.5v-38.88c0-4.143-3.357-7.5-7.5-7.5h-165.67c-4.143 0-7.5 3.357-7.5 7.5v165.67c0 4.143 3.357 7.5 7.5 7.5z"/><path d="m47.5 40c-4.143 0-7.5 3.357-7.5 7.5v85.667c0 4.143 3.357 7.5 7.5 7.5h85.667c4.143 0 7.5-3.357 7.5-7.5v-85.667c0-4.143-3.357-7.5-7.5-7.5zm78.167 85.667h-70.667v-70.667h70.667z"/><path d="m472 133.167v-85.667c0-4.143-3.357-7.5-7.5-7.5h-85.667c-4.143 0-7.5 3.357-7.5 7.5v85.667c0 4.143 3.357 7.5 7.5 7.5h85.667c4.143 0 7.5-3.357 7.5-7.5zm-15-7.5h-70.667v-70.667h70.667z"/><path d="m504.5 0h-165.67c-4.143 0-7.5 3.357-7.5 7.5v102.944h-102.941c-4.143 0-7.5 3.357-7.5 7.5v55.222c0 4.143 3.357 7.5 7.5 7.5h47.723v40.223h-47.723c-4.143 0-7.5 3.357-7.5 7.5v55.223c0 4.143 3.357 7.5 7.5 7.5h55.223c4.143 0 7.5-3.357 7.5-7.5v-47.723h47.722c4.143 0 7.5-3.357 7.5-7.5v-47.719h58.987c4.143 0 7.5-3.357 7.5-7.5s-3.357-7.5-7.5-7.5h-58.987l-.004-150.67h150.67v150.67h-58.99c-4.143 0-7.5 3.357-7.5 7.5s3.357 7.5 7.5 7.5h66.49c4.143 0 7.5-3.357 7.5-7.5v-165.67c0-4.143-3.357-7.5-7.5-7.5zm-228.389 276.111h-40.223v-40.223h40.223zm15-55.222v-47.723c0-4.143-3.357-7.5-7.5-7.5h-47.723v-40.222h95.441l.003 95.444h-40.221z"/><path d="m133.17 371.33h-27.06c-4.143 0-7.5 3.357-7.5 7.5s3.357 7.5 7.5 7.5h19.56v70.67h-70.67v-70.67h18.42c4.143 0 7.5-3.357 7.5-7.5s-3.357-7.5-7.5-7.5h-25.92c-4.143 0-7.5 3.357-7.5 7.5v85.67c0 4.143 3.357 7.5 7.5 7.5h85.67c4.143 0 7.5-3.357 7.5-7.5v-85.67c0-4.142-3.357-7.5-7.5-7.5z"/><path d="m228.389 70.223h55.223c4.143 0 7.5-3.357 7.5-7.5v-55.223c0-4.143-3.357-7.5-7.5-7.5h-55.223c-4.143 0-7.5 3.357-7.5 7.5v55.223c0 4.142 3.357 7.5 7.5 7.5zm7.5-55.223h40.223v40.223h-40.223z"/><path d="m283.611 331.333h-55.223c-4.143 0-7.5 3.357-7.5 7.5v47.723h-40.222v-47.723c0-4.143-3.357-7.5-7.5-7.5h-165.666c-4.143 0-7.5 3.357-7.5 7.5v165.667c0 4.143 3.357 7.5 7.5 7.5h165.667c4.143 0 7.5-3.357 7.5-7.5v-47.723h40.222v47.723c0 4.143 3.357 7.5 7.5 7.5h55.223c4.143 0 7.5-3.357 7.5-7.5v-55.223c0-4.143-3.357-7.5-7.5-7.5h-47.723v-40.222h47.723c4.143 0 7.5-3.357 7.5-7.5v-55.223c-.001-4.142-3.358-7.499-7.501-7.499zm-117.944 165.667h-150.667v-150.667h150.667zm15-95.444h40.222v40.222h-40.222zm95.444 95.444h-40.223v-40.223h40.223zm0-110.444h-40.223v-40.223h40.223z"/><path d="m504.5 220.889h-110.444c-4.143 0-7.5 3.357-7.5 7.5v47.723h-47.723c-4.143 0-7.5 3.357-7.5 7.5v55.222c0 4.143 3.357 7.5 7.5 7.5h102.944v40.223h-47.722c-4.143 0-7.5 3.357-7.5 7.5v47.722h-47.723c-4.143 0-7.5 3.357-7.5 7.5v55.221c0 4.143 3.357 7.5 7.5 7.5h55.223c4.143 0 7.5-3.357 7.5-7.5v-47.723h40.222v47.723c0 4.143 3.357 7.5 7.5 7.5h55.223c4.143 0 7.5-3.357 7.5-7.5v-55.223c0-4.143-3.357-7.5-7.5-7.5h-47.723v-40.222h47.723c4.143 0 7.5-3.357 7.5-7.5v-55.223c0-4.143-3.357-7.5-7.5-7.5h-47.723v-40.222h47.723c4.143 0 7.5-3.357 7.5-7.5v-55.223c0-4.141-3.357-7.498-7.5-7.498zm-158.167 70.222h40.223v40.222h-40.223zm40.223 205.889h-40.223v-40.223h40.223zm15-95.444h40.222v40.222h-40.222zm95.444 95.444h-40.223v-40.223h40.223zm0-110.444h-40.223v-40.223h40.223zm0-110.445h-47.723c-4.143 0-7.5 3.357-7.5 7.5v47.722h-40.222v-95.444h95.445z"/><path d="m173.167 220.889h-110.444c-4.143 0-7.5 3.357-7.5 7.5v55.223c0 4.143 3.357 7.5 7.5 7.5h110.444c4.143 0 7.5-3.357 7.5-7.5v-55.223c0-4.143-3.357-7.5-7.5-7.5zm-7.5 55.222h-95.444v-40.223h95.444z"/></g></svg>