<svg id="Capa_1" enable-background="new 0 0 512 512" height="512" viewBox="0 0 512 512" width="512" xmlns="http://www.w3.org/2000/svg"><g><path d="m484.5 18h-457c-15.164 0-27.5 12.336-27.5 27.5v25c0 4.143 3.358 7.5 7.5 7.5s7.5-3.357 7.5-7.5v-25c0-6.893 5.607-12.5 12.5-12.5h457c6.893 0 12.5 5.607 12.5 12.5v325c0 6.893-5.607 12.5-12.5 12.5h-457c-6.893 0-12.5-5.607-12.5-12.5v-265c0-4.143-3.358-7.5-7.5-7.5s-7.5 3.357-7.5 7.5v265c0 15.164 12.336 27.5 27.5 27.5h153.891l-15.454 51h-9.437c-12.407 0-22.5 10.094-22.5 22.5s10.093 22.5 22.5 22.5h199c12.407 0 22.5-10.094 22.5-22.5s-10.093-22.5-22.5-22.5h-9.436l-15.455-51h153.891c15.164 0 27.5-12.336 27.5-27.5v-325c0-15.164-12.336-27.5-27.5-27.5zm-154.109 431h-14.724c-4.142 0-7.5 3.357-7.5 7.5s3.358 7.5 7.5 7.5h39.833c4.136 0 7.5 3.364 7.5 7.5s-3.364 7.5-7.5 7.5h-199c-4.136 0-7.5-3.364-7.5-7.5s3.364-7.5 7.5-7.5h124.167c4.142 0 7.5-3.357 7.5-7.5s-3.358-7.5-7.5-7.5h-99.057l15.454-51h117.872z"/><path d="m469.5 368c6.893 0 12.5-5.607 12.5-12.5v-295c0-6.893-5.607-12.5-12.5-12.5h-427c-6.893 0-12.5 5.607-12.5 12.5v295c0 6.893 5.607 12.5 12.5 12.5zm-424.5-275h92v260h-92zm422 0v230h-315v-230zm-315 260v-15h315v15zm315-290v15h-422v-15z"/><path d="m299.5 236h2.5v20c0 4.143 3.358 7.5 7.5 7.5s7.5-3.357 7.5-7.5v-20h2.5c6.893 0 12.5-5.607 12.5-12.5v-75.5c0-6.893-5.607-12.5-12.5-12.5h-2.5v-20c0-4.143-3.358-7.5-7.5-7.5s-7.5 3.357-7.5 7.5v20h-2.5c-6.893 0-12.5 5.607-12.5 12.5v75.5c0 6.893 5.607 12.5 12.5 12.5zm2.5-85.5h15v70.5h-15z"/><path d="m419.5 281h2.5v20c0 4.143 3.358 7.5 7.5 7.5s7.5-3.357 7.5-7.5v-20h2.5c6.893 0 12.5-5.607 12.5-12.5v-40c0-6.893-5.607-12.5-12.5-12.5h-2.5v-20c0-4.143-3.358-7.5-7.5-7.5s-7.5 3.357-7.5 7.5v20h-2.5c-6.893 0-12.5 5.607-12.5 12.5v40c0 6.893 5.607 12.5 12.5 12.5zm2.5-50h15v35h-15z"/><path d="m359.5 231h2.5v20c0 4.143 3.358 7.5 7.5 7.5s7.5-3.357 7.5-7.5v-20h2.5c6.893 0 12.5-5.607 12.5-12.5v-43c0-6.893-5.607-12.5-12.5-12.5h-2.5v-20c0-4.143-3.358-7.5-7.5-7.5s-7.5 3.357-7.5 7.5v20h-2.5c-6.893 0-12.5 5.607-12.5 12.5v43c0 6.893 5.607 12.5 12.5 12.5zm2.5-53h15v38h-15z"/><path d="m239.5 263h2.5v20c0 4.143 3.358 7.5 7.5 7.5s7.5-3.357 7.5-7.5v-20h2.5c6.893 0 12.5-5.607 12.5-12.5v-36c0-6.893-5.607-12.5-12.5-12.5h-2.5v-20c0-4.143-3.358-7.5-7.5-7.5s-7.5 3.357-7.5 7.5v20h-2.5c-6.893 0-12.5 5.607-12.5 12.5v36c0 6.893 5.607 12.5 12.5 12.5zm2.5-46h15v31h-15z"/><path d="m179.5 281h2.5v20c0 4.143 3.358 7.5 7.5 7.5s7.5-3.357 7.5-7.5v-20h2.5c6.893 0 12.5-5.607 12.5-12.5v-20c0-6.893-5.607-12.5-12.5-12.5h-2.5v-20c0-4.143-3.358-7.5-7.5-7.5s-7.5 3.357-7.5 7.5v20h-2.5c-6.893 0-12.5 5.607-12.5 12.5v20c0 6.893 5.607 12.5 12.5 12.5zm2.5-30h15v15h-15z"/><path d="m94.5 301.5h-27c-4.142 0-7.5 3.357-7.5 7.5s3.358 7.5 7.5 7.5h27c4.142 0 7.5-3.357 7.5-7.5s-3.358-7.5-7.5-7.5z"/><path d="m114.5 271.5h-47c-4.142 0-7.5 3.357-7.5 7.5s3.358 7.5 7.5 7.5h47c4.142 0 7.5-3.357 7.5-7.5s-3.358-7.5-7.5-7.5z"/><path d="m67.5 256.5h27c4.142 0 7.5-3.357 7.5-7.5s-3.358-7.5-7.5-7.5h-27c-4.142 0-7.5 3.357-7.5 7.5s3.358 7.5 7.5 7.5z"/><path d="m114.5 211.5h-47c-4.142 0-7.5 3.357-7.5 7.5s3.358 7.5 7.5 7.5h47c4.142 0 7.5-3.357 7.5-7.5s-3.358-7.5-7.5-7.5z"/><path d="m114.5 181.5h-47c-4.142 0-7.5 3.357-7.5 7.5s3.358 7.5 7.5 7.5h47c4.142 0 7.5-3.357 7.5-7.5s-3.358-7.5-7.5-7.5z"/><path d="m67.5 166.5h27c4.142 0 7.5-3.357 7.5-7.5s-3.358-7.5-7.5-7.5h-27c-4.142 0-7.5 3.357-7.5 7.5s3.358 7.5 7.5 7.5z"/><path d="m67.5 136.5h47c4.142 0 7.5-3.357 7.5-7.5s-3.358-7.5-7.5-7.5h-47c-4.142 0-7.5 3.357-7.5 7.5s3.358 7.5 7.5 7.5z"/></g></svg>