<svg id="_x31_px" enable-background="new 0 0 24 24" height="512" viewBox="0 0 24 24" width="512" xmlns="http://www.w3.org/2000/svg"><path d="m15.5 24h-11c-1.378 0-2.5-1.122-2.5-2.5v-19c0-1.378 1.122-2.5 2.5-2.5h11c1.378 0 2.5 1.122 2.5 2.5v4c0 .276-.224.5-.5.5s-.5-.224-.5-.5v-4c0-.827-.673-1.5-1.5-1.5h-11c-.827 0-1.5.673-1.5 1.5v19c0 .827.673 1.5 1.5 1.5h11c.827 0 1.5-.673 1.5-1.5v-4c0-.276.224-.5.5-.5s.5.224.5.5v4c0 1.378-1.122 2.5-2.5 2.5z"/><path d="m12 3h-4c-.827 0-1.5-.673-1.5-1.5 0-.276-.224-.5-.5-.5h-1c-.276 0-.5-.224-.5-.5s.224-.5.5-.5h1c.827 0 1.5.673 1.5 1.5 0 .276.224.5.5.5h4c.276 0 .5-.224.5-.5 0-.827.673-1.5 1.5-1.5h1c.276 0 .5.224.5.5s-.224.5-.5.5h-1c-.276 0-.5.224-.5.5 0 .827-.673 1.5-1.5 1.5z"/><path d="m14.5 12c-.128 0-.256-.049-.354-.146l-2-2c-.195-.195-.195-.512 0-.707l2-2c.195-.195.512-.195.707 0s.195.512 0 .707l-1.646 1.646 1.646 1.646c.195.195.195.512 0 .707-.097.098-.225.147-.353.147z"/><path d="m21.5 10h-8.75c-.276 0-.5-.224-.5-.5s.223-.5.5-.5h8.75c.276 0 .5.224.5.5s-.224.5-.5.5z"/><path d="m19.5 17c-.128 0-.256-.049-.354-.146-.195-.195-.195-.512 0-.707l1.646-1.646-1.646-1.646c-.195-.195-.195-.512 0-.707s.512-.195.707 0l2 2c.195.195.195.512 0 .707l-2 2c-.097.096-.225.145-.353.145z"/><path d="m21.25 15h-8.75c-.276 0-.5-.224-.5-.5s.224-.5.5-.5h8.75c.276 0 .5.224.5.5s-.223.5-.5.5z"/></svg>