<?xml version="1.0" encoding="iso-8859-1"?>
<!-- Generator: Adobe Illustrator 18.1.1, SVG Export Plug-In . SVG Version: 6.00 Build 0)  -->
<svg version="1.1" id="Capa_1" xmlns="http://www.w3.org/2000/svg" xmlns:xlink="http://www.w3.org/1999/xlink" x="0px" y="0px"
	 viewBox="0 0 289.333 289.333" style="enable-background:new 0 0 289.333 289.333;" xml:space="preserve">
<g>
	<path id="path6831" d="M144.807,0.002c-1.689-0.051-3.273,0.815-4.143,2.264l-30,50c-1.325,2.211-0.607,5.077,1.604,6.402
		c0.725,0.434,1.553,0.664,2.398,0.664h25v50.334h-20c-5.454,0-10,4.546-10,10v50c0,5.454,4.546,10,10,10h20V230h-25
		c-2.578,0.001-4.667,2.091-4.666,4.668c0,0.845,0.23,1.673,0.664,2.398l30,50c1.326,2.21,4.193,2.927,6.403,1.601
		c0.657-0.394,1.206-0.944,1.601-1.601l30-50c1.325-2.211,0.607-5.077-1.604-6.402c-0.725-0.434-1.553-0.664-2.398-0.664h-25
		v-50.334h20c5.454,0,10-4.546,10-10v-50c0-5.454-4.546-10-10-10h-20V59.332h25c2.578-0.001,4.667-2.091,4.666-4.668
		c0-0.845-0.23-1.673-0.664-2.398l-30-50C147.851,0.903,146.396,0.05,144.807,0.002z M144.667,13.737L166.424,50h-43.516
		L144.667,13.737z M144.793,26.139c-0.912-0.039-1.773,0.422-2.246,1.203l-10,16c-0.77,1.146-0.466,2.699,0.68,3.47
		c1.146,0.77,2.699,0.466,3.47-0.68c0.031-0.046,0.06-0.093,0.088-0.141l10-16c0.748-1.161,0.413-2.708-0.748-3.456
		C145.665,26.295,145.236,26.158,144.793,26.139z M119.667,119.666h50v50h-50V119.666z M126.667,124.166c-1.381,0-2.5,1.119-2.5,2.5
		v20c-0.02,1.381,1.084,2.516,2.465,2.535c1.381,0.02,2.516-1.084,2.535-2.465c0-0.024,0-0.047,0-0.071v-17.5h17.5
		c1.381,0.02,2.516-1.084,2.535-2.465c0.02-1.381-1.084-2.516-2.465-2.535c-0.024,0-0.047,0-0.071,0H126.667z M122.909,239.332
		h43.516l-21.758,36.264L122.909,239.332z M154.793,242.139c-0.912-0.039-1.773,0.422-2.246,1.203l-10,16
		c-0.77,1.146-0.466,2.699,0.68,3.47c1.146,0.77,2.699,0.466,3.47-0.68c0.031-0.046,0.06-0.093,0.088-0.141l10-16
		c0.748-1.161,0.413-2.708-0.748-3.456C155.665,242.295,155.236,242.158,154.793,242.139z"/>
</g>
<g>
</g>
<g>
</g>
<g>
</g>
<g>
</g>
<g>
</g>
<g>
</g>
<g>
</g>
<g>
</g>
<g>
</g>
<g>
</g>
<g>
</g>
<g>
</g>
<g>
</g>
<g>
</g>
<g>
</g>
</svg>
