<svg id="_x31__x2C_5" enable-background="new 0 0 24 24" height="512" viewBox="0 0 24 24" width="512" xmlns="http://www.w3.org/2000/svg"><path d="m17.5 24c-3.584 0-6.5-2.916-6.5-6.5s2.916-6.5 6.5-6.5 6.5 2.916 6.5 6.5-2.916 6.5-6.5 6.5zm0-11.5c-2.757 0-5 2.243-5 5s2.243 5 5 5 5-2.243 5-5-2.243-5-5-5z"/><path d="m16.5 20c-.198 0-.39-.079-.53-.22l-2-2c-.293-.293-.293-.768 0-1.061s.768-.293 1.061 0l1.434 1.433 2.972-3.396c.274-.313.747-.343 1.059-.071.312.273.343.747.07 1.058l-3.5 4c-.138.157-.334.25-.541.257-.008 0-.017 0-.025 0z"/><path d="m8.5 21c-.048 0-.096-.004-.143-.014-.084-.016-8.357-1.725-8.357-11.056v-6.18c0-.31.19-.587.479-.699l7.75-3c.174-.067.367-.067.541 0l7.75 3c.29.112.48.389.48.699v4.5c0 .414-.336.75-.75.75s-.75-.336-.75-.75v-3.986l-7-2.709-7 2.709v5.666c0 7.594 6.01 9.32 7.012 9.555h.002c.406-.086.801.182.882.589.081.406-.183.801-.589.882l-.186.034c-.04.007-.08.01-.121.01z"/></svg>